<svg width="136" height="102" viewBox="0 0 136 102" fill="none" xmlns="http://www.w3.org/2000/svg">
<path d="M52.3724 99.9283C48.1702 94.9647 41.1557 89.6558 34.3623 86.2971C27.5028 82.9051 20.9874 81.0214 13.59 80.2929C12.1315 80.1506 10.9223 80.0178 10.9029 79.9988C10.8841 79.9988 10.9218 64.6792 10.9972 45.998L11.1217 12.0332L12.4685 12.166C20.7381 12.9912 29.968 16.1346 36.9516 20.5159C42.9701 24.291 49.1851 30.1206 53.1475 35.7065L54.1446 37.1122V69.3754C54.1446 87.1194 54.0692 101.635 53.9787 101.632C53.8844 101.629 53.1669 100.864 52.3766 99.9302L52.3724 99.9283ZM59.2229 69.2938V36.8959L61.1486 34.3074C63.6073 31.0028 68.5528 26.0239 71.8229 23.5625C80.5645 16.9807 90.047 13.2615 100.933 12.1423L102.314 12V46.0122V80.0254L100.712 80.1772C85.5539 81.5962 72.4123 87.8877 62.1333 98.6459L59.2229 101.693V69.2947V69.2938ZM68.6147 99.4901C74.5642 93.8748 82.4403 89.413 90.3519 87.1735C94.492 86.0021 99.876 85.1844 103.45 85.1844C105.324 85.1844 106.363 84.7766 106.949 83.8081C107.391 83.0778 107.395 82.7638 107.396 55.2034L107.397 27.3339L108.226 27.4856C108.681 27.5805 109.974 27.9409 111.099 28.3014L113.143 28.9558V63.7373C113.143 82.8672 113.067 98.5188 112.974 98.5188C112.88 98.5188 111.514 98.2248 109.935 97.8643C103.699 96.451 98.5632 95.9654 91.8182 96.1484C83.6368 96.3761 77.2784 97.5238 69.7199 100.151L66.8471 101.15L68.615 99.4816L68.6147 99.4901ZM43.4226 100.031C40.2837 98.9001 35.0996 97.5674 31.6 96.9926C26.8416 96.2148 23.5588 96.0081 17.7268 96.139C11.9322 96.2623 8.42718 96.6701 3.64575 97.7619C2.30878 98.0654 0.941445 98.3784 0.607201 98.4448L0 98.5776L0.00103743 63.7032L0.00216815 28.8278L2.59777 28.069C4.02525 27.6516 5.31763 27.2627 5.46953 27.2153C5.68921 27.1204 5.74578 32.8021 5.74578 55.0536C5.74578 85.4604 5.67978 83.7654 6.96943 84.6182C7.41823 84.9122 8.35071 85.045 11.0136 85.2062C21.5969 85.8133 31.6389 89.3883 39.837 95.4712C41.6049 96.783 45.8477 100.385 46.0908 100.781C46.2605 101.056 46.1474 101.028 43.4233 100.041L43.4226 100.031Z" fill="black" fill-opacity="0.59"/>
<path d="M52.3724 99.9283C48.1702 94.9647 41.1557 89.6558 34.3623 86.2971C27.5028 82.9051 20.9874 81.0214 13.59 80.2929C12.1315 80.1506 10.9223 80.0178 10.9029 79.9988C10.8841 79.9988 10.9218 64.6792 10.9972 45.998L11.1217 12.0332L12.4685 12.166C20.7381 12.9912 29.968 16.1346 36.9516 20.5159C42.9701 24.291 49.1851 30.1206 53.1475 35.7065L54.1446 37.1122V69.3754C54.1446 87.1194 54.0692 101.635 53.9787 101.632C53.8844 101.629 53.1669 100.864 52.3766 99.9302L52.3724 99.9283ZM59.2229 69.2938V36.8959L61.1486 34.3074C63.6073 31.0028 68.5528 26.0239 71.8229 23.5625C80.5645 16.9807 90.047 13.2615 100.933 12.1423L102.314 12V46.0122V80.0254L100.712 80.1772C85.5539 81.5962 72.4123 87.8877 62.1333 98.6459L59.2229 101.693V69.2947V69.2938ZM68.6147 99.4901C74.5642 93.8748 82.4403 89.413 90.3519 87.1735C94.492 86.0021 99.876 85.1844 103.45 85.1844C105.324 85.1844 106.363 84.7766 106.949 83.8081C107.391 83.0778 107.395 82.7638 107.396 55.2034L107.397 27.3339L108.226 27.4856C108.681 27.5805 109.974 27.9409 111.099 28.3014L113.143 28.9558V63.7373C113.143 82.8672 113.067 98.5188 112.974 98.5188C112.88 98.5188 111.514 98.2248 109.935 97.8643C103.699 96.451 98.5632 95.9654 91.8182 96.1484C83.6368 96.3761 77.2784 97.5238 69.7199 100.151L66.8471 101.15L68.615 99.4816L68.6147 99.4901ZM43.4226 100.031C40.2837 98.9001 35.0996 97.5674 31.6 96.9926C26.8416 96.2148 23.5588 96.0081 17.7268 96.139C11.9322 96.2623 8.42718 96.6701 3.64575 97.7619C2.30878 98.0654 0.941445 98.3784 0.607201 98.4448L0 98.5776L0.00103743 63.7032L0.00216815 28.8278L2.59777 28.069C4.02525 27.6516 5.31763 27.2627 5.46953 27.2153C5.68921 27.1204 5.74578 32.8021 5.74578 55.0536C5.74578 85.4604 5.67978 83.7654 6.96943 84.6182C7.41823 84.9122 8.35071 85.045 11.0136 85.2062C21.5969 85.8133 31.6389 89.3883 39.837 95.4712C41.6049 96.783 45.8477 100.385 46.0908 100.781C46.2605 101.056 46.1474 101.028 43.4233 100.041L43.4226 100.031Z" fill="black" fill-opacity="0.43"/>
<path d="M52.3724 99.9283C48.1702 94.9647 41.1557 89.6558 34.3623 86.2971C27.5028 82.9051 20.9874 81.0214 13.59 80.2929C12.1315 80.1506 10.9223 80.0178 10.9029 79.9988C10.8841 79.9988 10.9218 64.6792 10.9972 45.998L11.1217 12.0332L12.4685 12.166C20.7381 12.9912 29.968 16.1346 36.9516 20.5159C42.9701 24.291 49.1851 30.1206 53.1475 35.7065L54.1446 37.1122V69.3754C54.1446 87.1194 54.0692 101.635 53.9787 101.632C53.8844 101.629 53.1669 100.864 52.3766 99.9302L52.3724 99.9283ZM59.2229 69.2938V36.8959L61.1486 34.3074C63.6073 31.0028 68.5528 26.0239 71.8229 23.5625C80.5645 16.9807 90.047 13.2615 100.933 12.1423L102.314 12V46.0122V80.0254L100.712 80.1772C85.5539 81.5962 72.4123 87.8877 62.1333 98.6459L59.2229 101.693V69.2947V69.2938ZM68.6147 99.4901C74.5642 93.8748 82.4403 89.413 90.3519 87.1735C94.492 86.0021 99.876 85.1844 103.45 85.1844C105.324 85.1844 106.363 84.7766 106.949 83.8081C107.391 83.0778 107.395 82.7638 107.396 55.2034L107.397 27.3339L108.226 27.4856C108.681 27.5805 109.974 27.9409 111.099 28.3014L113.143 28.9558V63.7373C113.143 82.8672 113.067 98.5188 112.974 98.5188C112.88 98.5188 111.514 98.2248 109.935 97.8643C103.699 96.451 98.5632 95.9654 91.8182 96.1484C83.6368 96.3761 77.2784 97.5238 69.7199 100.151L66.8471 101.15L68.615 99.4816L68.6147 99.4901ZM43.4226 100.031C40.2837 98.9001 35.0996 97.5674 31.6 96.9926C26.8416 96.2148 23.5588 96.0081 17.7268 96.139C11.9322 96.2623 8.42718 96.6701 3.64575 97.7619C2.30878 98.0654 0.941445 98.3784 0.607201 98.4448L0 98.5776L0.00103743 63.7032L0.00216815 28.8278L2.59777 28.069C4.02525 27.6516 5.31763 27.2627 5.46953 27.2153C5.68921 27.1204 5.74578 32.8021 5.74578 55.0536C5.74578 85.4604 5.67978 83.7654 6.96943 84.6182C7.41823 84.9122 8.35071 85.045 11.0136 85.2062C21.5969 85.8133 31.6389 89.3883 39.837 95.4712C41.6049 96.783 45.8477 100.385 46.0908 100.781C46.2605 101.056 46.1474 101.028 43.4233 100.041L43.4226 100.031Z" fill="black" fill-opacity="0.2"/>
<path d="M23.715 43.96V37.415H42.965V43.96H37.19V73H29.49V43.96H23.715ZM86.0988 53.53C88.4821 54.3733 89.6738 56.3167 89.6738 59.36V65.74C89.6738 70.58 87.4004 73 82.8538 73H68.7188V37.415H82.4138C86.9604 37.415 89.2338 39.835 89.2338 44.675V47.92C89.2338 50.8533 88.1888 52.7233 86.0988 53.53ZM80.4887 42.64H76.4188V52.155H80.4887C80.7821 52.155 81.0204 52.045 81.2038 51.825C81.4238 51.605 81.5338 51.3483 81.5338 51.055V43.74C81.5338 43.4467 81.4238 43.19 81.2038 42.97C81.0204 42.75 80.7821 42.64 80.4887 42.64ZM81.9738 66.62V58.645C81.9738 58.3517 81.8638 58.095 81.6438 57.875C81.4604 57.655 81.2221 57.545 80.9288 57.545H76.4188V67.72H80.9288C81.2221 67.72 81.4604 67.61 81.6438 67.39C81.8638 67.17 81.9738 66.9133 81.9738 66.62Z" fill="#E0E40E"/>
<path d="M122.904 22.552V11.912H125.192L125.176 22.552H122.904ZM128.632 22.552L126.744 18.696H125.032L124.536 18.6L124.744 17.016V16.824H126.584C127.203 16.824 127.651 16.6853 127.928 16.408C128.216 16.1307 128.36 15.736 128.36 15.224C128.36 14.6587 128.205 14.28 127.896 14.088C127.597 13.896 127.235 13.8 126.808 13.8H125.176L124.568 13.096L124.552 11.912C124.765 11.912 124.989 11.912 125.224 11.912C125.469 11.912 125.747 11.912 126.056 11.912C126.376 11.912 126.744 11.912 127.16 11.912C128.259 11.912 129.123 12.1787 129.752 12.712C130.381 13.2347 130.701 13.9973 130.712 15C130.712 15.6187 130.579 16.1893 130.312 16.712C130.056 17.224 129.699 17.64 129.24 17.96C128.792 18.2693 128.269 18.424 127.672 18.424L127.208 18.168C127.56 18.168 127.869 18.184 128.136 18.216C128.403 18.248 128.627 18.3067 128.808 18.392C129 18.4773 129.139 18.6053 129.224 18.776L131.32 22.552H128.632ZM126.6 26.744C123.688 26.744 121.459 25.9173 119.912 24.264C118.365 22.6 117.592 20.2053 117.592 17.08C117.592 14.008 118.365 11.656 119.912 10.024C121.459 8.392 123.693 7.576 126.616 7.576C129.528 7.576 131.757 8.392 133.304 10.024C134.851 11.656 135.624 14.008 135.624 17.08C135.624 20.2053 134.851 22.6 133.304 24.264C131.757 25.9173 129.523 26.744 126.6 26.744ZM126.6 25.208C128.968 25.208 130.781 24.5147 132.04 23.128C133.299 21.7307 133.928 19.7253 133.928 17.112C133.928 14.52 133.299 12.5413 132.04 11.176C130.792 9.8 128.984 9.112 126.616 9.112C124.248 9.112 122.435 9.8 121.176 11.176C119.917 12.5413 119.288 14.52 119.288 17.112C119.288 19.7253 119.912 21.7307 121.16 23.128C122.419 24.5147 124.232 25.208 126.6 25.208Z" fill="black"/>
</svg>
